<svg width="200" height="88" viewBox="0 0 200 88" fill="none" xmlns="http://www.w3.org/2000/svg">
<g clip-path="url(#clip0_1669_38070)">
<path d="M200 55.5268V87.2554H167.877V87.2257H-1.28746e-05V0.571289H200V55.5268ZM198.538 85.7865V56.9957H169.346V85.7865H198.538ZM198.538 55.5046V2.03272H1.46219V55.5046H198.538ZM167.877 85.7569V56.9734H1.46219V85.7569H167.877Z" fill="#0A344D"/>
<path d="M198.538 56.9956V85.7864H169.346V56.9956H198.538Z" fill="white"/>
<path d="M198.538 2.03271V55.5046H1.46219V2.03271H198.538Z" fill="white"/>
<path d="M189.75 11.2241V46.2093H154.754V11.2241H189.75ZM183.916 32.2108V25.2152H175.751V17.055H168.752V25.2152H160.58V32.2108H168.752V40.3785H175.751V32.2108H183.916Z" fill="#E52421"/>
<path d="M196.593 59.6144L196.237 59.2583C196.069 59.094 195.843 59.0025 195.608 59.0039C195.373 59.0053 195.148 59.0994 194.983 59.2658L191.969 62.3073L190.982 60.972C190.919 60.8872 190.839 60.8157 190.748 60.7616C190.657 60.7075 190.556 60.6719 190.452 60.6567C190.347 60.6416 190.24 60.6472 190.138 60.6733C190.035 60.6994 189.939 60.7454 189.854 60.8088L189.386 61.1575L191.821 64.4364L196.593 59.6144Z" fill="#96A6B0"/>
<path d="M194.983 65.8236L191.969 68.8652L190.982 67.5373C190.919 67.4525 190.839 67.381 190.748 67.3269C190.657 67.2728 190.556 67.2372 190.452 67.222C190.347 67.2069 190.24 67.2125 190.138 67.2386C190.035 67.2647 189.939 67.3107 189.854 67.3741L189.386 67.7228L191.821 71.0017L196.593 66.1797L196.237 65.8236C196.07 65.6583 195.845 65.5655 195.61 65.5655C195.375 65.5655 195.149 65.6583 194.983 65.8236Z" fill="#96A6B0"/>
<path d="M194.983 72.3889L191.969 75.4305L190.982 74.1026C190.854 73.932 190.664 73.8186 190.453 73.7867C190.242 73.7547 190.027 73.8069 189.854 73.932L189.386 74.288L191.821 77.567L196.593 72.7376L196.237 72.3815C196.069 72.2171 195.843 72.1257 195.608 72.1271C195.373 72.1285 195.148 72.2226 194.983 72.3889Z" fill="#96A6B0"/>
<path d="M194.983 78.9542L191.969 81.9958L190.982 80.6605C190.919 80.5757 190.839 80.5042 190.748 80.4501C190.657 80.396 190.556 80.3604 190.452 80.3452C190.347 80.33 190.24 80.3357 190.138 80.3618C190.035 80.3878 189.939 80.4339 189.854 80.4972L189.386 80.8459L191.821 84.1248L196.593 79.3029L196.237 78.9468C196.069 78.7824 195.843 78.691 195.608 78.6924C195.373 78.6938 195.148 78.7879 194.983 78.9542Z" fill="#96A6B0"/>
<path d="M185.987 59.2658L182.973 62.3073L181.986 60.972C181.923 60.8872 181.843 60.8157 181.752 60.7616C181.661 60.7075 181.561 60.6719 181.456 60.6567C181.351 60.6416 181.244 60.6472 181.142 60.6733C181.039 60.6994 180.943 60.7454 180.858 60.8088L180.39 61.1575L182.825 64.4364L187.597 59.6144L187.241 59.2583C187.073 59.094 186.847 59.0025 186.612 59.0039C186.378 59.0053 186.153 59.0994 185.987 59.2658Z" fill="#96A6B0"/>
<path d="M185.987 65.8236L182.973 68.8652L181.986 67.5373C181.923 67.4525 181.843 67.381 181.752 67.3269C181.661 67.2728 181.561 67.2372 181.456 67.222C181.351 67.2069 181.244 67.2125 181.142 67.2386C181.039 67.2647 180.943 67.3107 180.858 67.3741L180.39 67.7228L182.825 71.0017L187.597 66.1797L187.241 65.8236C187.074 65.6583 186.849 65.5655 186.614 65.5655C186.379 65.5655 186.154 65.6583 185.987 65.8236Z" fill="#96A6B0"/>
<path d="M185.987 72.3889L182.973 75.4305L181.986 74.1026C181.858 73.932 181.668 73.8186 181.457 73.7867C181.246 73.7547 181.031 73.8069 180.858 73.932L180.39 74.288L182.825 77.567L187.597 72.7376L187.241 72.3815C187.073 72.2171 186.847 72.1257 186.612 72.1271C186.378 72.1285 186.153 72.2226 185.987 72.3889Z" fill="#96A6B0"/>
<path d="M185.987 78.9542L182.973 81.9958L181.986 80.6605C181.923 80.5757 181.843 80.5042 181.752 80.4501C181.661 80.396 181.561 80.3604 181.456 80.3452C181.351 80.33 181.244 80.3357 181.142 80.3618C181.039 80.3878 180.943 80.4339 180.858 80.4972L180.39 80.8459L182.825 84.1248L187.597 79.3029L187.241 78.9468C187.073 78.7824 186.847 78.691 186.612 78.6924C186.378 78.6938 186.153 78.7879 185.987 78.9542Z" fill="#96A6B0"/>
<path d="M176.991 59.2658L173.978 62.3073L172.99 60.972C172.927 60.8872 172.848 60.8157 172.757 60.7616C172.666 60.7075 172.565 60.6719 172.46 60.6567C172.355 60.6416 172.249 60.6472 172.146 60.6733C172.043 60.6994 171.947 60.7454 171.862 60.8088L171.395 61.1575L173.829 64.4364L178.602 59.6144L178.245 59.2583C178.078 59.094 177.852 59.0025 177.617 59.0039C177.382 59.0053 177.157 59.0994 176.991 59.2658Z" fill="#96A6B0"/>
<path d="M176.991 65.8236L173.978 68.8652L172.99 67.5373C172.927 67.4525 172.848 67.381 172.757 67.3269C172.666 67.2728 172.565 67.2372 172.46 67.222C172.355 67.2069 172.249 67.2125 172.146 67.2386C172.043 67.2647 171.947 67.3107 171.862 67.3741L171.395 67.7228L173.829 71.0017L178.602 66.1797L178.245 65.8236C178.079 65.6583 177.853 65.5655 177.618 65.5655C177.383 65.5655 177.158 65.6583 176.991 65.8236Z" fill="#96A6B0"/>
<path d="M176.991 72.3889L173.978 75.4305L172.99 74.1026C172.862 73.932 172.672 73.8186 172.461 73.7867C172.25 73.7547 172.035 73.8069 171.862 73.932L171.395 74.288L173.829 77.567L178.602 72.7376L178.245 72.3815C178.078 72.2171 177.852 72.1257 177.617 72.1271C177.382 72.1285 177.157 72.2226 176.991 72.3889Z" fill="#96A6B0"/>
<path d="M176.991 78.9542L173.978 81.9958L172.99 80.6605C172.927 80.5757 172.848 80.5042 172.757 80.4501C172.666 80.396 172.565 80.3604 172.46 80.3452C172.355 80.33 172.249 80.3357 172.146 80.3618C172.043 80.3878 171.947 80.4339 171.862 80.4972L171.395 80.8459L173.829 84.1248L178.602 79.3029L178.245 78.9468C178.078 78.7824 177.852 78.691 177.617 78.6924C177.382 78.6938 177.157 78.7879 176.991 78.9542Z" fill="#96A6B0"/>
<path d="M167.877 56.9736V85.757H1.46219V56.9736H167.877Z" fill="#96A6B0"/>
<path d="M146.211 21.4024C145.581 19.3377 144.464 17.4548 142.953 15.9127C141.416 14.34 139.37 13.0938 136.814 12.1739C134.261 11.2467 131.045 10.7843 127.165 10.7866C125.889 10.7866 124.36 10.8237 122.601 10.8905C120.834 10.9647 118.711 11.1353 116.232 11.4172V46.1502H128.62C131.797 46.1502 134.558 45.6705 136.903 44.711C139.098 43.8539 141.075 42.5212 142.693 40.8089C144.212 39.1536 145.361 37.1936 146.062 35.0597C146.809 32.7983 147.183 30.4305 147.168 28.0493C147.181 25.7984 146.858 23.5582 146.211 21.4024ZM138.507 33.2273C138.201 34.6641 137.574 36.0133 136.673 37.1739C135.733 38.3223 134.511 39.2068 133.126 39.7407C131.634 40.349 129.744 40.6531 127.455 40.6531H124.256V16.5433C125.458 16.4395 126.624 16.3801 127.744 16.3801C129.956 16.3801 131.79 16.6917 133.244 17.3C134.59 17.8309 135.78 18.6935 136.703 19.8074C137.572 20.9063 138.187 22.1828 138.507 23.5463C138.86 25.0563 139.034 26.6025 139.026 28.1531C139.039 29.8584 138.864 31.5599 138.507 33.2273Z" fill="#0A344D"/>
<path d="M106.851 11.6472C106.337 11.3542 105.778 11.151 105.196 11.0463C104.61 10.9439 104.016 10.8917 103.422 10.8905C103.147 10.8905 102.754 10.9202 102.227 10.9721C101.707 11.024 101.173 11.0834 100.631 11.1576V32.9157C100.631 35.3935 100.104 37.3149 99.0574 38.6947C98.0108 40.0745 96.1701 40.7644 93.5352 40.7644C92.0211 40.7644 90.8038 40.5641 89.8686 40.1635C89.0068 39.809 88.2559 39.23 87.6939 38.487C87.1469 37.7171 86.7861 36.8308 86.64 35.8979C86.4588 34.7721 86.3719 33.6331 86.3802 32.4929V14.9706C86.4143 14.2414 86.2447 13.517 85.8903 12.8786C85.5736 12.3763 85.1441 11.9547 84.636 11.6472C84.1225 11.3542 83.5627 11.151 82.9808 11.0463C82.395 10.9439 81.8015 10.8917 81.2069 10.8905C80.9322 10.8905 80.5389 10.9202 80.0119 10.9721C79.4923 11.024 78.9579 11.0834 78.4161 11.1576V32.0255C78.4161 32.76 78.431 33.4573 78.4755 34.1175C78.5126 34.7778 78.572 35.4232 78.6462 36.0537C78.8406 37.6522 79.2734 39.2125 79.9302 40.6828C80.5355 42.0131 81.4519 43.1784 82.6022 44.0804C83.9005 45.0721 85.3845 45.7935 86.9665 46.2021C89.054 46.7332 91.2036 46.9802 93.3571 46.9365C95.5391 46.9763 97.715 46.6938 99.8145 46.0982C101.464 45.6283 103.012 44.8561 104.379 43.8208C105.558 42.9172 106.513 41.7547 107.17 40.4232C107.809 39.1165 108.213 37.7079 108.365 36.2614C108.439 35.527 108.498 34.8148 108.536 34.1175C108.58 33.4202 108.595 32.7229 108.595 32.0255V14.9706C108.629 14.2414 108.459 13.517 108.105 12.8786C107.788 12.3763 107.359 11.9547 106.851 11.6472Z" fill="#0A344D"/>
<path d="M62.1094 12.4113C61.6921 12.0099 61.2104 11.6814 60.6843 11.4395C60.1928 11.2203 59.6733 11.0705 59.1405 10.9943C58.6681 10.9302 58.1922 10.8955 57.7154 10.8905C56.8095 10.8859 55.905 10.9654 55.0137 11.1279C54.3508 11.241 53.698 11.4073 53.0617 11.6249L39.5755 46.2095H47.4802L50.4416 37.6932H60.9367L60.1499 35.0967C59.9763 34.3883 59.6265 33.7351 59.1331 33.1976C58.7125 32.7569 58.2143 32.3973 57.6635 32.1368C57.1431 31.8887 56.5872 31.7235 56.0157 31.6472C55.4996 31.5709 54.9788 31.5313 54.4571 31.5285H52.5792L57.4853 17.4335L67.4386 46.2095H75.6921L63.1856 14.1323C62.9636 13.4838 62.5954 12.8949 62.1094 12.4113Z" fill="#0A344D"/>
<path d="M38.9891 10.8905C37.5121 10.8905 36.3616 11.2095 35.5303 11.8326C34.6353 12.5468 33.9758 13.5135 33.6377 14.6071L25.4954 38.5611L17.5314 14.7629C17.1849 13.6292 16.5046 12.6261 15.5793 11.8846C14.7108 11.2244 13.5381 10.8931 12.0612 10.8905C11.2175 10.8876 10.3745 10.9397 9.53759 11.0463C8.93566 11.1122 8.34157 11.2364 7.76368 11.4172L20.8491 46.2095H29.6816L42.9452 11.4172C41.6501 11.0956 40.3232 10.919 38.9891 10.8905Z" fill="#0A344D"/>
<path d="M155.8 72.5742C157.396 71.9584 158.517 70.6528 158.517 69.0282C158.517 66.9288 156.713 65.2151 154.516 65.2151H149.024C148.934 65.2142 148.847 65.2486 148.782 65.311C148.716 65.3734 148.678 65.4588 148.675 65.5489V77.2255C148.677 77.3169 148.714 77.404 148.779 77.4679C148.845 77.5318 148.933 77.5673 149.024 77.5668H151.206C151.297 77.565 151.383 77.5286 151.448 77.4652C151.513 77.4018 151.551 77.3161 151.555 77.2255V72.73H152.824L155.266 77.4036C155.297 77.4544 155.341 77.4962 155.393 77.5248C155.445 77.5535 155.504 77.5679 155.563 77.5668H158.005C158.067 77.5719 158.129 77.5597 158.185 77.5315C158.24 77.5033 158.287 77.4602 158.319 77.4071C158.351 77.354 158.368 77.2929 158.368 77.2307C158.367 77.1685 158.35 77.1076 158.317 77.0549L155.8 72.5742ZM154.279 70.4896H151.555V67.7374H154.279C154.641 67.7341 154.99 67.8729 155.251 68.124C155.512 68.375 155.664 68.7183 155.674 69.0801C155.667 69.4489 155.517 69.8007 155.258 70.063C154.998 70.3252 154.648 70.4779 154.279 70.4896Z" fill="white"/>
<path d="M143.717 65.2151H141.453C141.363 65.2142 141.276 65.2486 141.211 65.311C141.146 65.3734 141.107 65.4588 141.104 65.5489V72.6929C141.105 72.9911 141.046 73.2864 140.93 73.5612C140.815 73.836 140.645 74.0847 140.431 74.2924C140.216 74.5001 139.963 74.6626 139.684 74.7702C139.406 74.8777 139.109 74.9281 138.811 74.9184C138.515 74.9264 138.22 74.8746 137.945 74.7659C137.67 74.6573 137.419 74.4942 137.208 74.2863C136.997 74.0784 136.831 73.8301 136.719 73.5563C136.606 73.2825 136.55 72.9888 136.555 72.6929V65.5489C136.552 65.4588 136.513 65.3734 136.448 65.311C136.383 65.2486 136.296 65.2142 136.206 65.2151H133.942C133.853 65.218 133.768 65.2537 133.704 65.3153C133.639 65.3769 133.6 65.4601 133.593 65.5489V72.8338C133.593 75.5193 135.931 77.7374 138.811 77.7374C141.713 77.7374 144.066 75.5193 144.066 72.8338V65.5489C144.059 65.4601 144.02 65.3769 143.955 65.3153C143.891 65.2537 143.806 65.218 143.717 65.2151Z" fill="white"/>
<path d="M129.318 65.2151H121.71C121.62 65.2142 121.533 65.2486 121.468 65.311C121.402 65.3734 121.364 65.4588 121.361 65.5489V77.2255C121.363 77.3169 121.4 77.404 121.465 77.4679C121.531 77.5318 121.619 77.5673 121.71 77.5668H129.318C129.363 77.5669 129.407 77.5581 129.449 77.541C129.49 77.5239 129.528 77.4988 129.56 77.4671C129.591 77.4354 129.616 77.3977 129.634 77.3562C129.651 77.3148 129.659 77.2704 129.659 77.2255V75.3042C129.659 75.2597 129.65 75.2157 129.633 75.1747C129.616 75.1337 129.591 75.0966 129.559 75.0655C129.527 75.0344 129.489 75.01 129.448 74.9937C129.407 74.9773 129.362 74.9694 129.318 74.9703H124.226V72.589H128.412C128.457 72.5901 128.502 72.5823 128.544 72.5661C128.586 72.5499 128.624 72.5256 128.656 72.4946C128.689 72.4636 128.715 72.4265 128.733 72.3854C128.751 72.3443 128.76 72.3 128.761 72.2552V70.3338C128.757 70.2441 128.718 70.1594 128.653 70.0973C128.589 70.0352 128.502 70.0003 128.412 70H124.226V67.8116H129.318C129.363 67.8117 129.407 67.8029 129.449 67.7858C129.49 67.7687 129.528 67.7436 129.56 67.7119C129.591 67.6802 129.616 67.6425 129.634 67.601C129.651 67.5596 129.659 67.5152 129.659 67.4703V65.5489C129.658 65.4595 129.621 65.3743 129.557 65.3117C129.493 65.2492 129.407 65.2145 129.318 65.2151Z" fill="white"/>
<path d="M111.022 65.2151H106.539C106.452 65.2175 106.369 65.2537 106.308 65.316C106.247 65.3783 106.213 65.4618 106.212 65.5489V77.2255C106.211 77.3138 106.245 77.399 106.306 77.4628C106.367 77.5266 106.451 77.5639 106.539 77.5668H111.022C114.562 77.5668 117.465 74.7923 117.465 71.3724C117.465 67.9822 114.562 65.2151 111.022 65.2151ZM110.836 74.9555H109.077V67.8116H110.836C111.309 67.7994 111.779 67.883 112.218 68.0573C112.657 68.2316 113.056 68.4931 113.391 68.8259C113.726 69.1587 113.99 69.556 114.167 69.9936C114.344 70.4313 114.431 70.9003 114.421 71.3724C114.432 71.8459 114.347 72.3168 114.171 72.7564C113.995 73.1961 113.731 73.5955 113.396 73.9304C113.061 74.2654 112.661 74.5289 112.221 74.7051C111.781 74.8813 111.31 74.9664 110.836 74.9555Z" fill="white"/>
<path d="M97.4397 65.1632C97.411 65.1046 97.3668 65.0549 97.3118 65.0196C97.2569 64.9843 97.1933 64.9647 97.128 64.9629H96.9499C96.8846 64.9647 96.821 64.9843 96.7661 65.0196C96.7111 65.0549 96.6669 65.1046 96.6381 65.1632L90.8859 77.0326C90.8587 77.083 90.8459 77.1399 90.8488 77.1971C90.8517 77.2543 90.8702 77.3096 90.9023 77.357C90.9345 77.4044 90.979 77.4421 91.031 77.466C91.0831 77.4899 91.1407 77.4991 91.1976 77.4926H93.2239C93.3638 77.4966 93.5016 77.4584 93.6194 77.3829C93.7372 77.3075 93.8296 77.1984 93.8845 77.0697L94.5376 75.6528H99.5402L100.201 77.0475C100.364 77.3813 100.513 77.4926 100.839 77.4926H102.88C102.937 77.4991 102.995 77.4899 103.047 77.466C103.099 77.4421 103.143 77.4044 103.176 77.357C103.208 77.3096 103.226 77.2543 103.229 77.1971C103.232 77.1399 103.219 77.083 103.192 77.0326L97.4397 65.1632ZM95.6436 73.2567L97.0241 70.3487H97.0389L98.4343 73.2567H95.6436Z" fill="white"/>
<path d="M84.7918 70.0668C83.3445 69.503 82.7952 69.0059 82.7952 68.3531C82.7952 67.8783 83.2925 67.4555 83.9457 67.4555C85.0664 67.4555 86.4098 68.4273 86.5731 68.5163C86.7438 68.635 87.0705 68.4792 87.1966 68.2863L88.1392 66.9288C88.1917 66.8371 88.2094 66.7297 88.1889 66.6261C88.1685 66.5225 88.1113 66.4298 88.0279 66.365C86.8827 65.5319 85.5102 65.0686 84.0941 65.0371C81.2662 65.0371 79.856 66.8027 79.856 68.5534C79.856 70.6676 81.8377 71.8472 83.4187 72.4481C84.6656 72.9228 85.304 73.4866 85.304 74.2285C85.304 74.8442 84.777 75.2893 84.0422 75.2893C82.8324 75.2893 81.5038 74.3546 81.437 74.3175C81.3361 74.2588 81.218 74.237 81.1028 74.256C80.9877 74.2749 80.8827 74.3334 80.8061 74.4214L79.9451 75.8902C79.7966 76.135 79.856 76.2018 80.0416 76.3798C80.4572 76.7878 81.7784 77.7374 84.1683 77.7374C86.87 77.7374 88.5029 75.905 88.5029 74.0875C88.5029 71.6914 86.2243 70.6157 84.7918 70.0668Z" fill="white"/>
<path d="M73.0795 70.0668C71.6247 69.503 71.0755 69.0059 71.0755 68.3531C71.0755 67.8783 71.5728 67.4555 72.2334 67.4555C73.3541 67.4555 74.6901 68.4273 74.8608 68.5163C75.0241 68.635 75.3507 68.4792 75.4843 68.2863L76.4195 66.9288C76.4738 66.8376 76.4925 66.7296 76.4719 66.6255C76.4514 66.5215 76.3931 66.4287 76.3082 66.365C75.1653 65.533 73.7954 65.0697 72.3818 65.0371C69.5539 65.0371 68.1363 66.8027 68.1363 68.5534C68.1363 70.6676 70.118 71.8472 71.699 72.4481C72.9459 72.9228 73.5916 73.4866 73.5916 74.2285C73.5916 74.8442 73.0572 75.2893 72.3224 75.2893C71.1126 75.2893 69.7915 74.3546 69.7172 74.3175C69.6176 74.259 69.5006 74.2374 69.3866 74.2564C69.2727 74.2754 69.169 74.3338 69.0937 74.4214L68.2328 75.8902C68.0843 76.135 68.1363 76.2018 68.3218 76.3798C68.7449 76.7878 70.0661 77.7374 72.456 77.7374C75.1503 77.7374 76.7832 75.905 76.7832 74.0875C76.7832 71.6914 74.512 70.6157 73.0795 70.0668Z" fill="white"/>
<path d="M60.0534 65.2374C60.0247 65.1787 59.9805 65.1291 59.9255 65.0938C59.8706 65.0585 59.807 65.0389 59.7417 65.0371H59.5561C59.4913 65.0408 59.4286 65.0612 59.374 65.0963C59.3193 65.1314 59.2747 65.18 59.2444 65.2374L53.4996 77.1068C53.4724 77.1572 53.4596 77.2141 53.4625 77.2713C53.4654 77.3285 53.4839 77.3838 53.516 77.4312C53.5482 77.4786 53.5927 77.5163 53.6447 77.5402C53.6968 77.5641 53.7544 77.5733 53.8113 77.5668H55.8302C55.9705 77.5729 56.1093 77.5356 56.2275 77.4599C56.3458 77.3842 56.4377 77.2739 56.4908 77.1439L57.1513 75.727H62.1465L62.8071 77.1217C62.9778 77.4555 63.1188 77.5668 63.4528 77.5668H65.4939C65.5506 77.5726 65.6079 77.5629 65.6595 77.5388C65.7112 77.5147 65.7553 77.477 65.7873 77.4299C65.8192 77.3827 65.8379 77.3278 65.8411 77.2709C65.8443 77.214 65.8321 77.1573 65.8057 77.1068L60.0534 65.2374ZM58.2572 73.3309L59.6304 70.4228H59.6527L61.048 73.3309H58.2572Z" fill="white"/>
<path d="M48.7048 71.2834C49.5658 70.8457 50.835 69.8516 50.835 68.4941C50.835 66.6469 49.0537 65.2151 46.8864 65.2151H42.6037C42.5135 65.2142 42.4265 65.2486 42.3613 65.311C42.2961 65.3734 42.2579 65.4588 42.2549 65.5489V77.2255C42.2563 77.3169 42.2937 77.404 42.3591 77.4679C42.4244 77.5318 42.5123 77.5673 42.6037 77.5668H47.161C49.3505 77.5668 51.169 76.135 51.169 74.1617C51.169 72.5371 49.6771 71.6691 48.7048 71.2834ZM45.1199 67.7522H46.5524C46.7166 67.7443 46.8808 67.7694 47.0352 67.8259C47.1896 67.8823 47.3311 67.9691 47.4515 68.0811C47.5718 68.1931 47.6685 68.328 47.7359 68.4779C47.8033 68.6278 47.84 68.7897 47.8438 68.954C47.8389 69.2928 47.7006 69.6159 47.4588 69.8534C47.217 70.0909 46.8914 70.2235 46.5524 70.2225H45.1199V67.7522ZM46.7973 75.0445H45.1199V72.5148H46.6117C47.3243 72.5148 48.1185 73.049 48.1185 73.7537C48.1128 74.0994 47.9708 74.4289 47.7234 74.6706C47.476 74.9123 47.1432 75.0467 46.7973 75.0445Z" fill="white"/>
<path d="M36.176 65.319C36.1614 65.2421 36.1212 65.1724 36.0619 65.1212C36.0026 65.07 35.9277 65.0404 35.8495 65.0371H35.5526C35.4906 65.0416 35.4304 65.0599 35.3765 65.0907C35.3225 65.1215 35.2762 65.164 35.2409 65.2151L30.9805 72.8338H30.9434L26.683 65.2151C26.6476 65.164 26.6013 65.1215 26.5473 65.0907C26.4934 65.0599 26.4332 65.0416 26.3713 65.0371H26.0744C25.9961 65.0404 25.9213 65.07 25.862 65.1212C25.8027 65.1724 25.7624 65.2421 25.7478 65.319L23.6695 77.1736C23.6604 77.2234 23.6628 77.2746 23.6764 77.3234C23.6901 77.3721 23.7146 77.4172 23.7482 77.455C23.7818 77.4929 23.8236 77.5227 23.8704 77.542C23.9172 77.5614 23.9678 77.5698 24.0184 77.5668H26.1857C26.2678 77.5683 26.3477 77.5409 26.4115 77.4894C26.4754 77.4378 26.5189 77.3654 26.5345 77.2849L27.3436 71.8323H27.3807L30.4832 77.5445C30.5165 77.5987 30.5621 77.6443 30.6162 77.6778C30.6703 77.7113 30.7315 77.7317 30.7949 77.7374H31.1289C31.1915 77.729 31.2517 77.7074 31.3054 77.6742C31.3591 77.641 31.4052 77.5968 31.4407 77.5445L34.5209 71.8323H34.558L35.3893 77.2849C35.4082 77.3637 35.4527 77.4341 35.5158 77.4851C35.5789 77.5361 35.657 77.5648 35.7381 77.5668H37.9054C37.956 77.5698 38.0066 77.5614 38.0534 77.542C38.1002 77.5227 38.142 77.4929 38.1756 77.455C38.2092 77.4172 38.2338 77.3721 38.2474 77.3234C38.261 77.2746 38.2634 77.2234 38.2543 77.1736L36.176 65.319Z" fill="white"/>
<path d="M15.5719 65.2374C15.5416 65.18 15.4969 65.1314 15.4423 65.0963C15.3877 65.0612 15.325 65.0408 15.2601 65.0371H15.0746C15.0095 65.0398 14.9463 65.0598 14.8916 65.095C14.8368 65.1302 14.7924 65.1794 14.7628 65.2374L9.01802 77.1068C8.99014 77.1565 8.97651 77.2129 8.97859 77.2698C8.98068 77.3268 8.9984 77.382 9.02984 77.4296C9.06128 77.4771 9.10519 77.515 9.15679 77.5392C9.20839 77.5634 9.26568 77.573 9.32234 77.5668H11.3486C11.4887 77.5719 11.627 77.5341 11.745 77.4586C11.8631 77.383 11.9553 77.2732 12.0092 77.1439L12.6698 75.727H17.6649L18.3255 77.1217C18.4888 77.4555 18.6373 77.5668 18.9713 77.5668H21.005C21.0619 77.5733 21.1195 77.5641 21.1716 77.5402C21.2236 77.5163 21.2681 77.4786 21.3003 77.4312C21.3324 77.3838 21.3509 77.3285 21.3538 77.2713C21.3567 77.2141 21.3439 77.1572 21.3167 77.1068L15.5719 65.2374ZM13.7683 73.3309L15.1488 70.4228H15.1637L16.559 73.3309H13.7683Z" fill="white"/>
</g>
<defs>
<clipPath id="clip0_1669_38070">
<rect width="200" height="86.6841" fill="white" transform="translate(0 0.571289)"/>
</clipPath>
</defs>
</svg>
